<!-- icon666.com - MILLIONS vector ICONS FREE --><svg version="1.1" id="Capa_1" xmlns="http://www.w3.org/2000/svg" xmlns:xlink="http://www.w3.org/1999/xlink" x="0px" y="0px" viewBox="0 0 512 512" style="enable-background:new 0 0 512 512;" xml:space="preserve"><g><g><rect y="173.34" width="120" height="316.72"></rect></g></g><g><g><path d="M501.092,305.717c0-11.425-3.791-21.98-10.179-30.478C503.675,265.994,512,250.983,512,234.058 c0-28.027-22.803-50.829-50.83-50.829H345.625l16.08-55.543v-26.613c0-49.039-39.897-88.936-88.936-88.936 c-11.891,0-21.564,9.674-21.564,21.564v59c-8.019,12.834-52.551,62.804-101.205,115.158v262.49l41.518,15.569 c24.677,9.254,50.553,13.946,76.909,13.946h160.019c28.027,0,50.829-22.803,50.829-50.83c0-11.42-3.786-21.973-10.169-30.469 c12.76-9.244,21.077-24.265,21.077-41.19c0-11.425-3.791-21.98-10.178-30.478C492.767,337.655,501.092,322.644,501.092,305.717z"></path></g></g></svg>