<!-- icon666.com - MILLIONS vector ICONS FREE --><svg version="1.1" id="Capa_1" xmlns="http://www.w3.org/2000/svg" xmlns:xlink="http://www.w3.org/1999/xlink" x="0px" y="0px" viewBox="0 0 512 512" style="enable-background:new 0 0 512 512;" xml:space="preserve"><g><g><path d="M501.092,305.716c0-11.425-3.791-21.98-10.179-30.478C503.675,265.994,512,250.983,512,234.057 c0-28.027-22.803-50.829-50.83-50.829H345.625l16.08-55.543v-26.613c0-49.039-39.897-88.936-88.936-88.936 c-11.891,0-21.564,9.674-21.564,21.564v59c-8.485,13.58-57.85,68.738-109.723,124.304V173.34H0v316.72h141.482v-22.905 l50.036,18.763c24.677,9.254,50.553,13.946,76.909,13.946h160.019c28.027,0,50.829-22.803,50.829-50.83 c0-11.42-3.786-21.973-10.169-30.469c12.76-9.244,21.077-24.265,21.077-41.19c0-11.425-3.791-21.98-10.178-30.478 C492.767,337.654,501.092,322.643,501.092,305.716z M111.482,460.06H30V203.34h81.482V460.06z M461.17,254.886h-12.777v30h1.869 c11.485,0,20.83,9.344,20.83,20.829s-9.345,20.83-20.83,20.83h-8.929v0.05c-0.658-0.025-1.316-0.05-1.98-0.05v30 c11.485,0,20.829,9.344,20.829,20.829c0,11.485-9.343,20.831-20.829,20.831h-10.908v30c11.485,0,20.829,9.344,20.829,20.829 c0,11.485-9.344,20.83-20.829,20.83H268.427c-22.746,0-45.078-4.05-66.375-12.036l-60.57-22.714V260.823 c10.26-10.889,38.24-40.688,65.95-71.104c73.773-80.976,73.773-86.715,73.773-93.979V42.737c28.515,4.105,50.5,28.701,50.5,58.334 v22.358l-25.996,89.798H461.17c11.485,0,20.83,9.344,20.83,20.829S472.655,254.886,461.17,254.886z"></path></g></g></svg>